<?xml version="1.0" standalone="no"?>
<!DOCTYPE svg PUBLIC "-//W3C//DTD SVG 20010904//EN"
 "http://www.w3.org/TR/2001/REC-SVG-20010904/DTD/svg10.dtd">
<svg version="1.0" xmlns="http://www.w3.org/2000/svg"
 width="265.000000pt" height="283.000000pt" viewBox="0 0 265.000000 283.000000"
 preserveAspectRatio="xMidYMid meet">
<metadata>
Created by potrace 1.10, written by Peter Selinger 2001-2011
</metadata>
<g transform="translate(0.000000,283.000000) scale(0.100000,-0.100000)"
fill="#000000" stroke="none">
<path d="M1215 2705 c-27 -7 -63 -19 -80 -25 -36 -14 -127 -71 -122 -76 2 -3
33 9 69 26 220 103 456 61 629 -111 71 -70 128 -170 148 -259 14 -61 14 -186
-1 -252 -14 -64 -25 -80 -39 -55 -6 10 -33 35 -61 57 l-50 40 -2 93 c-1 77 -5
101 -28 149 -35 76 -104 148 -181 189 -59 32 -67 34 -167 34 -95 0 -110 -3
-163 -29 -65 -31 -71 -44 -11 -22 51 18 161 31 124 15 -90 -40 -112 -50 -108
-54 2 -2 26 3 53 11 149 46 316 -28 381 -170 23 -51 44 -176 30 -176 -4 0 -21
7 -39 17 -18 9 -52 21 -76 27 -37 10 -45 17 -56 50 -7 21 -24 49 -36 62 -27
29 -90 48 -130 39 -46 -10 -43 -23 5 -23 60 0 100 -24 131 -76 33 -57 48 -69
121 -95 53 -19 65 -21 83 -9 11 7 21 16 21 20 0 5 5 8 10 8 6 0 9 -3 9 -7 -9
-55 22 -99 113 -160 30 -20 40 -23 57 -14 30 16 54 110 54 211 1 158 -54 290
-168 406 -142 143 -348 206 -520 159z"/>
<path d="M625 2376 c-168 -38 -319 -154 -393 -302 -32 -64 -52 -156 -51 -235
l1 -74 18 104 c23 132 70 230 148 310 211 214 535 229 764 34 59 -50 71 -73
39 -73 -18 0 -74 -20 -119 -42 -18 -10 -26 -8 -45 10 -12 11 -49 33 -82 49
-53 25 -71 28 -160 28 -88 0 -107 -3 -157 -27 -124 -58 -214 -182 -225 -309
-7 -76 2 -74 22 6 18 68 59 147 89 172 12 11 16 12 9 3 -36 -49 -54 -97 -58
-159 l-4 -66 13 50 c20 77 50 128 106 178 92 83 219 103 336 54 32 -14 60 -30
62 -35 2 -6 -9 -17 -25 -26 -15 -8 -44 -30 -62 -50 -25 -26 -40 -34 -55 -30
-65 21 -153 -11 -181 -66 -27 -52 -17 -66 15 -22 39 54 62 65 131 63 53 -1 60
1 118 45 72 54 86 75 71 104 -13 24 -12 24 31 6 31 -13 40 -12 103 10 75 26
106 48 106 74 0 35 -136 151 -210 179 -124 47 -252 60 -355 37z"/>
<path d="M2166 2293 c12 -10 45 -36 73 -58 86 -66 146 -155 187 -275 26 -76
26 -234 0 -310 -50 -148 -147 -267 -271 -332 -66 -34 -161 -66 -170 -56 -2 2
2 22 10 43 8 22 14 59 15 83 0 32 5 44 18 48 76 24 150 83 201 162 34 53 61
145 61 207 0 108 -62 232 -148 298 -62 47 -81 43 -26 -5 37 -33 94 -112 94
-132 0 -6 -11 5 -24 25 -22 32 -103 95 -112 87 -2 -2 17 -23 41 -47 61 -59 89
-120 93 -208 5 -82 -8 -130 -50 -193 -29 -43 -95 -102 -131 -116 -14 -5 -17 0
-18 37 0 24 -6 60 -12 79 -12 33 -11 37 17 73 55 70 42 182 -26 218 -22 11
-22 11 -6 -7 27 -31 48 -89 42 -120 -3 -16 -17 -49 -31 -73 -22 -38 -24 -50
-18 -100 9 -82 24 -121 44 -121 32 0 32 -13 0 -39 -26 -22 -33 -37 -43 -101
-9 -47 -10 -84 -4 -99 8 -22 13 -23 56 -18 94 11 179 56 268 139 128 122 184
250 184 424 0 108 -23 194 -75 282 -54 91 -147 176 -230 210 -30 12 -30 12 -9
-5z"/>
<path d="M1225 1820 c-100 -21 -162 -67 -201 -147 -27 -55 -29 -65 -29 -188 0
-119 2 -134 25 -179 56 -110 158 -161 320 -160 179 1 291 70 314 195 5 28 2
42 -15 62 -19 25 -27 27 -91 27 -67 0 -72 -2 -102 -34 -41 -43 -67 -56 -109
-56 -90 0 -127 44 -127 153 0 110 43 147 153 135 32 -4 51 -15 83 -47 40 -39
44 -41 103 -41 53 0 66 4 87 25 28 28 26 49 -9 124 -22 47 -82 97 -145 119
-46 17 -204 24 -257 12z m242 -45 c81 -24 137 -84 157 -167 l6 -28 -79 0 c-75
0 -80 1 -83 22 -9 64 -158 93 -229 45 -50 -34 -64 -69 -64 -162 1 -116 28
-157 119 -179 70 -17 176 28 176 75 0 17 8 19 80 19 l81 0 -7 -37 c-12 -72
-44 -115 -108 -148 -57 -28 -66 -30 -180 -30 -102 0 -128 3 -166 21 -95 45
-139 119 -147 248 -7 100 15 196 56 246 71 88 237 120 388 75z"/>
<path d="M595 1695 c-190 -44 -351 -201 -411 -400 -24 -82 -24 -240 0 -315 47
-143 138 -257 253 -317 86 -46 88 -41 6 16 -162 114 -243 268 -243 463 0 234
144 432 373 513 43 15 80 26 83 23 2 -3 -2 -31 -11 -64 -8 -32 -15 -68 -15
-80 0 -18 -12 -28 -55 -48 -69 -31 -145 -108 -182 -183 -26 -53 -28 -67 -28
-168 0 -100 2 -115 27 -161 34 -64 71 -109 122 -145 58 -43 64 -35 13 15 -45
43 -102 124 -94 132 2 3 17 -12 32 -32 26 -34 108 -94 128 -94 5 0 -11 15 -35
33 -54 41 -104 123 -119 196 -15 71 -1 152 37 217 26 45 130 137 148 131 4 -1
10 -23 12 -47 3 -25 9 -60 14 -79 8 -30 6 -38 -20 -67 -51 -59 -49 -140 6
-199 32 -35 42 -26 14 13 -37 49 -37 102 -2 164 30 52 30 55 21 128 -10 86
-33 116 -78 105 -19 -4 -15 1 16 20 46 28 57 52 69 155 5 46 3 58 -12 71 -16
14 -26 15 -69 4z"/>
<path d="M2269 1119 c-7 -54 -54 -161 -81 -186 -16 -14 -15 -9 6 32 28 55 48
153 28 141 -7 -4 -12 -17 -12 -30 0 -36 -48 -122 -90 -160 -106 -95 -235 -117
-359 -61 l-64 29 28 21 c16 11 48 37 71 58 37 33 46 37 64 27 52 -28 155 24
179 90 14 42 -3 46 -22 5 -21 -45 -68 -68 -139 -69 -50 -1 -63 -6 -108 -40
-64 -49 -84 -78 -75 -107 6 -19 5 -21 -11 -14 -43 18 -76 16 -144 -10 -85 -32
-97 -56 -56 -109 85 -112 298 -196 460 -183 260 22 482 225 518 472 7 48 8 92
3 110 -7 26 -10 21 -16 -41 -8 -88 -21 -129 -66 -216 -64 -124 -197 -229 -342
-272 -112 -33 -276 -16 -389 41 -56 28 -182 127 -182 143 0 6 12 10 26 10 15
0 53 12 86 27 l59 26 27 -26 c55 -52 117 -72 232 -72 95 0 111 3 161 28 86 42
143 98 184 181 32 64 36 79 33 136 -3 64 -3 64 -9 19z"/>
<path d="M788 1003 c-30 -35 -43 -96 -42 -203 1 -176 55 -302 178 -418 185
-173 461 -210 654 -88 64 40 59 48 -11 15 -127 -59 -252 -69 -386 -32 -235 64
-403 279 -405 518 -1 73 20 205 32 205 3 0 29 -22 58 -50 29 -27 57 -50 62
-50 5 0 9 -39 9 -87 0 -67 5 -102 22 -146 74 -191 277 -290 476 -232 29 8 63
24 76 35 l24 20 -44 -15 c-61 -21 -156 -32 -147 -17 4 7 16 12 27 12 25 0 78
23 104 44 17 15 15 14 -15 -1 -26 -13 -60 -17 -130 -18 -80 0 -102 4 -138 23
-107 57 -170 151 -180 267 -2 36 -3 65 0 65 2 0 22 -9 43 -20 22 -11 56 -23
75 -26 32 -5 38 -11 53 -55 28 -79 121 -121 187 -85 23 13 22 14 -28 14 -68 1
-102 22 -139 86 -26 46 -35 53 -98 77 -70 27 -87 27 -117 1 -17 -14 -18 -13
-18 15 0 36 -26 72 -92 124 -56 44 -68 47 -90 22z"/>
</g>
</svg>
