<?xml version="1.0" standalone="no"?>
<!DOCTYPE svg PUBLIC "-//W3C//DTD SVG 20010904//EN"
 "http://www.w3.org/TR/2001/REC-SVG-20010904/DTD/svg10.dtd">
<svg version="1.0" xmlns="http://www.w3.org/2000/svg"
 width="300.000000pt" height="119.000000pt" viewBox="0 0 300.000000 119.000000"
 preserveAspectRatio="xMidYMid meet">
<metadata>
Created by potrace 1.10, written by Peter Selinger 2001-2011
</metadata>
<g transform="translate(0.000000,119.000000) scale(0.100000,-0.100000)"
fill="#000000" stroke="none">
<path d="M445 993 c-39 -10 -86 -36 -95 -53 -7 -14 0 -12 38 7 132 68 283 -24
284 -173 0 -30 -2 -57 -5 -60 -11 -11 -53 31 -49 49 6 31 -19 85 -54 117 -28
24 -44 30 -80 30 -53 0 -112 -26 -96 -42 8 -8 16 -7 27 2 9 7 36 14 61 14 40
1 49 -3 80 -36 20 -22 34 -48 34 -63 0 -14 -2 -25 -5 -25 -17 0 -56 26 -60 41
-8 24 -47 34 -73 20 -12 -6 -22 -7 -24 -2 -2 5 -10 11 -18 13 -8 2 -18 7 -22
12 -10 14 -88 36 -129 36 -51 0 -132 -44 -162 -88 -33 -50 -50 -106 -42 -142
11 -48 20 -42 21 15 1 65 25 109 83 150 37 26 51 30 110 30 57 0 74 -4 109
-28 23 -15 42 -31 42 -36 0 -17 -61 -21 -83 -6 -12 8 -42 15 -67 15 -80 0
-140 -57 -140 -133 0 -47 26 -46 28 1 3 76 72 124 146 102 l40 -12 -25 -19
c-13 -10 -34 -19 -46 -19 -23 0 -63 -32 -63 -50 0 -15 17 -12 23 4 3 7 22 16
43 19 23 4 47 17 60 32 12 14 26 25 30 24 21 -5 65 23 74 46 8 21 15 25 36 21
15 -3 27 -6 28 -8 12 -29 29 -44 57 -51 19 -5 43 -20 55 -34 17 -22 26 -25 52
-20 35 7 53 -12 45 -48 -13 -59 -14 -75 -4 -93 7 -14 8 -23 1 -27 -16 -10 -12
-75 4 -81 11 -4 12 -12 4 -35 -8 -23 -16 -29 -38 -29 -16 0 -41 -11 -57 -23
-15 -13 -39 -27 -53 -30 -36 -10 -51 -21 -54 -43 -3 -24 -66 -34 -66 -11 0 20
-33 47 -57 47 -11 0 -34 14 -51 30 -33 31 -56 38 -67 20 -5 -8 -11 -8 -20 0
-10 9 -13 36 -9 112 2 55 7 105 10 110 11 17 -25 45 -51 40 -14 -2 -25 -8 -25
-13 0 -5 -6 -9 -13 -9 -20 0 -84 -71 -102 -112 -26 -64 -15 -169 22 -206 7 -7
13 -16 13 -20 1 -12 47 -41 76 -47 l29 -7 -30 20 c-44 28 -83 77 -96 121 -27
89 22 195 108 233 24 11 46 18 48 16 2 -1 1 -16 -2 -31 -3 -17 -16 -33 -35
-43 -84 -44 -91 -171 -12 -233 53 -42 58 -18 7 34 -28 28 -33 40 -33 80 0 39
5 52 32 78 l32 32 6 -30 c4 -18 0 -39 -8 -52 -16 -26 -8 -59 18 -73 14 -7 17
-19 14 -47 -9 -93 51 -199 131 -233 77 -33 184 -14 221 39 13 17 9 17 -31 -6
-39 -22 -55 -25 -110 -21 -53 3 -71 9 -102 34 -48 38 -83 106 -83 159 0 56 10
67 38 45 16 -13 22 -29 22 -59 0 -51 45 -106 101 -122 32 -10 46 -9 84 5 25
10 45 21 45 25 0 17 -14 19 -41 6 -42 -22 -83 -18 -118 10 -28 24 -59 90 -48
101 8 9 50 -17 70 -43 20 -25 56 -30 74 -12 9 9 16 8 27 -3 8 -9 12 -19 8 -23
-4 -4 -2 -6 3 -4 6 1 17 0 25 -4 74 -28 137 -40 146 -26 3 5 18 9 33 9 27 0
71 27 99 60 40 47 64 146 43 178 -5 9 -10 -6 -13 -41 -9 -113 -93 -183 -208
-175 -43 3 -70 12 -102 33 l-43 29 31 12 c28 11 37 11 70 -6 48 -25 67 -25
121 1 57 28 92 96 73 144 -7 18 -8 17 -14 -10 -12 -54 -38 -94 -71 -109 -39
-19 -54 -20 -91 -6 -26 10 -26 11 -9 30 10 11 31 20 46 20 33 0 59 23 59 53 0
15 10 27 33 36 74 33 137 128 137 208 0 73 -72 174 -135 188 l-30 7 30 -19
c106 -69 137 -196 71 -292 -26 -38 -109 -92 -121 -79 -13 13 9 59 36 75 42 25
72 92 63 139 -7 40 -53 99 -84 107 -30 8 -24 -10 15 -44 38 -34 52 -79 36
-121 -10 -27 -48 -68 -63 -68 -12 0 -10 68 2 75 18 11 11 53 -11 69 -18 12
-21 21 -16 51 15 92 -72 224 -159 239 -73 14 -79 14 -99 9z"/>
<path d="M423 669 c-53 -16 -73 -51 -73 -130 0 -63 3 -72 30 -100 26 -28 36
-31 87 -32 32 0 66 2 75 4 45 13 80 77 57 105 -15 19 -73 18 -89 -1 -7 -9 -23
-15 -34 -13 -17 2 -21 10 -21 38 0 29 4 35 22 36 13 1 28 -5 34 -12 6 -8 29
-14 50 -14 46 0 58 24 34 70 -24 47 -105 70 -172 49z m138 -48 c16 -16 29 -34
29 -40 0 -19 -49 -12 -70 9 -11 11 -29 20 -40 20 -29 0 -60 -36 -60 -70 0 -34
31 -70 60 -70 11 0 29 9 40 20 25 25 75 28 66 4 -3 -9 -6 -20 -6 -25 0 -17
-59 -39 -105 -39 -38 0 -52 5 -76 29 -25 25 -29 37 -29 81 0 44 4 56 29 81 25
25 37 29 81 29 44 0 56 -4 81 -29z"/>
<path d="M1025 643 c-41 -21 -66 -44 -59 -54 3 -5 0 -9 -5 -9 -18 0 -12 -68 9
-110 11 -22 27 -40 35 -40 8 0 15 -4 15 -8 0 -4 25 -8 56 -8 49 1 59 5 76 27
11 15 18 35 16 45 -2 15 -8 11 -25 -19 -19 -32 -27 -37 -58 -37 -42 0 -90 22
-99 45 -5 13 0 12 20 -4 18 -14 41 -21 70 -21 39 0 45 3 61 33 9 17 18 39 20
47 1 8 5 29 9 45 7 35 -11 56 -65 74 -40 13 -38 13 -76 -6z m110 -34 c20 -20
-11 -30 -57 -18 -58 16 -78 8 -78 -30 0 -39 36 -64 90 -64 42 0 48 -5 28 -25
-37 -37 -138 12 -138 68 0 43 10 61 44 76 32 14 93 10 111 -7z m-48 -34 c33
-14 37 -14 49 2 18 25 27 11 9 -15 -15 -20 -17 -20 -52 -6 -20 9 -47 14 -60
11 -22 -4 -30 3 -16 16 10 11 31 8 70 -8z m8 -45 c4 -7 -3 -8 -22 -4 -38 9
-42 14 -10 14 14 0 29 -5 32 -10z"/>
<path d="M1227 642 c-15 -2 -31 -11 -36 -20 -12 -23 -15 -106 -6 -160 6 -33
13 -44 32 -48 37 -10 73 11 73 41 0 16 6 25 15 25 9 0 15 -9 15 -25 0 -27 25
-45 63 -45 32 0 37 15 37 119 0 101 -12 122 -65 112 -23 -5 -31 -13 -35 -35
-6 -34 -30 -48 -30 -18 0 31 -31 58 -63 54z m23 -57 l0 -35 51 0 51 0 -4 35
c-4 31 -1 35 19 35 23 0 24 -2 21 -77 -3 -65 -6 -78 -20 -81 -15 -3 -18 4 -18
37 l0 41 -50 0 -50 0 0 -40 c0 -33 -3 -40 -20 -40 -18 0 -20 7 -20 80 0 73 2
80 20 80 16 0 20 -7 20 -35z m17 -7 c-3 -7 -5 -2 -5 12 0 14 2 19 5 13 2 -7 2
-19 0 -25z m73 -58 c0 -5 -18 -10 -40 -10 -22 0 -40 5 -40 10 0 6 18 10 40 10
22 0 40 -4 40 -10z m-70 -70 c0 -16 -7 -20 -30 -20 -16 0 -30 5 -30 10 0 6 11
10 25 10 14 0 25 5 25 10 0 6 2 10 5 10 3 0 5 -9 5 -20z m130 -5 c0 -10 -10
-15 -30 -15 -38 0 -39 17 -2 23 15 2 28 5 30 6 1 0 2 -6 2 -14z"/>
<path d="M1452 633 c-9 -9 -12 -43 -10 -105 3 -89 4 -93 30 -108 23 -12 31
-13 45 -2 33 23 46 25 57 11 16 -22 99 -25 116 -4 11 13 9 20 -13 43 -22 23
-24 30 -13 45 18 24 26 21 26 -9 0 -34 51 -82 93 -88 58 -8 80 -2 115 31 33
31 34 36 30 84 -4 40 -12 58 -37 82 -26 27 -39 32 -83 33 -49 2 -56 -1 -89
-35 l-36 -37 -29 34 c-28 32 -32 33 -110 36 -56 2 -84 -2 -92 -11z m393 -17
c61 -26 72 -80 26 -127 -41 -40 -91 -40 -132 0 -45 46 -35 101 24 126 40 18
41 18 82 1z m-209 -20 c17 -25 3 -53 -33 -62 l-26 -7 39 -33 39 -33 -30 -1
c-23 0 -41 10 -70 40 -40 40 -58 50 -51 28 3 -7 7 -32 10 -55 6 -42 6 -43 -24
-43 -38 0 -40 20 -2 21 22 1 23 3 5 6 -20 4 -22 11 -25 85 l-3 80 78 -4 c63
-3 82 -7 93 -22z m14 -71 c-7 -8 -19 -15 -28 -15 -12 0 -10 6 9 26 24 26 41
16 19 -11z m253 -37 c-10 -18 -30 -39 -44 -46 -36 -19 -97 -8 -128 23 l-26 27
35 -21 c60 -36 134 -20 158 35 7 14 15 24 19 21 3 -3 -3 -21 -14 -39z m-266
-38 c23 0 45 -4 48 -10 4 -6 -12 -10 -41 -10 -42 0 -53 5 -86 37 -21 20 -38
42 -38 47 0 6 17 -7 38 -27 31 -31 45 -37 79 -37z"/>
<path d="M1741 586 c-7 -8 -10 -24 -6 -36 15 -47 125 -82 139 -44 20 51 -98
122 -133 80z m97 -22 c37 -24 25 -35 -13 -13 -21 13 -46 19 -60 17 -24 -5 -32
2 -18 16 9 9 63 -3 91 -20z m-13 -34 c20 -9 20 -9 0 -9 -11 0 -27 4 -35 9 -13
9 -13 10 0 9 8 0 24 -4 35 -9z"/>
<path d="M1512 578 c3 -31 6 -33 46 -36 31 -2 44 1 48 13 10 25 -25 55 -63 55
-33 0 -34 -2 -31 -32z m74 7 c24 -18 19 -18 -31 0 -33 12 -36 14 -14 15 14 0
34 -7 45 -15z"/>
<path d="M1964 640 c-25 -10 -39 -39 -24 -54 5 -5 10 -38 10 -72 0 -34 3 -69
6 -78 9 -24 53 -20 62 5 8 21 9 21 25 -5 21 -31 52 -34 67 -5 11 20 12 20 25
3 18 -25 152 -28 165 -4 12 23 58 23 87 0 29 -22 89 -27 96 -7 4 8 8 8 14 2
12 -15 55 -18 63 -5 5 8 14 8 36 0 24 -10 31 -8 44 7 21 25 58 28 82 7 15 -14
38 -19 106 -20 55 -1 90 3 94 10 4 6 8 52 8 102 0 107 -12 127 -67 112 l-32
-8 -3 -88 -3 -87 -20 37 c-11 20 -33 61 -48 92 -31 60 -40 66 -80 59 -21 -4
-29 -14 -39 -47 -6 -22 -20 -53 -30 -68 -10 -14 -18 -31 -18 -37 0 -7 -12 0
-27 14 -36 32 -47 32 -70 -5 l-19 -30 -28 58 c-43 85 -71 119 -98 118 -32 -2
-48 -14 -48 -37 0 -21 -51 -128 -61 -129 -3 0 -7 27 -7 60 -1 68 -14 100 -42
100 -21 0 -67 -44 -76 -72 -9 -29 -29 -21 -53 22 -31 55 -55 67 -97 50z m87
-80 l36 -60 48 60 c26 33 51 60 54 60 3 0 5 -35 5 -77 -1 -69 -4 -78 -20 -78
-16 0 -18 7 -15 48 1 26 -2 47 -7 47 -14 0 -23 -28 -11 -32 6 -2 -7 -27 -28
-56 -41 -55 -44 -55 -75 3 -10 18 -10 19 7 5 17 -14 18 -14 6 8 -7 12 -16 20
-21 17 -5 -3 -12 0 -16 6 -5 8 -3 9 6 4 8 -5 11 -3 8 6 -3 8 -10 13 -16 12 -6
-2 -9 3 -6 11 3 8 0 17 -7 21 -9 6 -10 -9 -5 -64 6 -60 5 -71 -9 -71 -8 0 -15
5 -15 10 0 6 5 10 11 10 8 0 7 5 -1 15 -9 11 -11 34 -7 75 5 39 3 61 -5 66 -7
5 -8 3 -3 -6 5 -9 4 -11 -4 -6 -18 11 -3 26 27 26 22 0 33 -11 63 -60z m356
-12 c21 -40 39 -76 41 -80 8 -18 -38 -6 -48 12 -16 30 -105 29 -120 -1 -7 -11
-14 -19 -16 -16 -3 3 9 33 26 68 27 52 34 60 42 46 10 -19 2 -57 -13 -57 -6 0
-6 7 1 19 15 30 11 39 -5 11 -21 -37 -19 -40 26 -40 l40 0 -27 50 c-15 27 -31
47 -37 43 -6 -3 -7 -1 -3 5 4 7 18 12 31 12 20 0 31 -13 62 -72z m342 -4 c23
-41 41 -77 41 -80 0 -14 -41 -1 -50 16 -16 30 -105 29 -120 -1 -7 -11 -14 -18
-17 -16 -3 3 10 33 29 66 29 52 35 58 45 42 12 -20 -8 -57 -26 -46 -6 3 -11 1
-11 -4 0 -6 18 -11 41 -11 35 0 40 3 35 18 -13 33 -50 80 -60 75 -5 -3 -6 -1
-2 5 4 7 18 12 31 12 19 0 31 -14 64 -76z m151 4 c0 -40 3 -83 6 -95 6 -20 3
-23 -25 -23 -38 0 -42 19 -3 21 22 1 23 3 5 6 -20 4 -22 11 -25 84 -3 76 -2
79 20 79 21 0 22 -4 22 -72z m-348 -73 c8 -18 8 -29 1 -36 -16 -16 -56 -1 -49
18 3 8 6 21 6 29 0 24 30 16 42 -11z m-167 5 c4 -6 -11 -10 -39 -10 -35 0 -48
-5 -56 -20 -6 -11 -17 -20 -25 -20 -20 0 -19 5 8 34 16 17 33 24 64 25 23 1
45 -3 48 -9z m340 0 c4 -6 -11 -10 -39 -10 -35 0 -48 -5 -56 -20 -6 -11 -17
-20 -25 -20 -20 0 -19 5 8 34 16 17 33 24 64 25 23 1 45 -3 48 -9z m-515 -35
c0 -10 -10 -15 -30 -15 -38 0 -39 17 -2 23 15 2 28 5 30 6 1 0 2 -6 2 -14z
m258 -4 c5 -15 -65 -14 -71 2 -3 8 6 12 31 11 20 -1 38 -6 40 -13z m342 -2 c0
-12 -57 -12 -65 0 -3 5 7 11 22 13 32 4 43 1 43 -13z"/>
<path d="M2092 489 c-18 -21 -29 -39 -24 -39 11 0 66 69 60 75 -2 2 -18 -14
-36 -36z"/>
<path d="M2655 549 c-4 -6 -5 -12 -2 -15 2 -3 7 2 10 11 7 17 1 20 -8 4z"/>
<path d="M2525 460 c-16 -7 -17 -9 -3 -9 9 -1 20 4 23 9 7 11 7 11 -20 0z"/>
</g>
</svg>
